<?xml version="1.0" encoding="UTF-8"?>
<svg width="748px" height="64px" viewBox="0 0 748 64" version="1.1" xmlns="http://www.w3.org/2000/svg" xmlns:xlink="http://www.w3.org/1999/xlink">
    <title>skyranch-logo_white</title>
    <g id="Page-1" stroke="none" stroke-width="1" fill="none" fill-rule="evenodd">
        <g id="Artboard" transform="translate(-46.000000, -458.000000)">
            <g id="skyranch-logo_white" transform="translate(48.000000, 459.000000)">
                <path d="M18.1140304,62 C11.8139766,62 5.02023253,59.5086017 1.47635401,56.1193447 L0,47.446413 L0.688650751,47.1487187 C4.82369978,55.4220716 11.9114568,59.4083089 18.3105631,59.4083089 C26.3841284,59.4083089 31.896479,54.1246341 31.896479,46.6488471 C31.896479,29.8028552 1.37887376,33.7906845 1.37887376,16.0468341 C1.37887376,5.58136908 9.35338657,0 19.1973189,0 C25.7929579,0 30.5176052,1.69383249 33.6684182,4.6835105 L34.4561215,12.0605967 L34.063056,12.4585837 C30.5176052,5.08308941 24.9077744,2.69039182 18.7052009,2.69039182 C12.1095618,2.69039182 6.98870454,6.57792841 6.98870454,12.9584553 C6.98870454,28.4083089 38,22.9256406 38,44.7560212 C38,55.5207724 28.6481857,62 18.1140304,62" id="Fill-1" fill="#FEFEFE"></path>
                <path d="M18.1140304,62 C11.8139766,62 5.02023253,59.5086017 1.47635401,56.1193447 L0,47.446413 L0.688650751,47.1487187 C4.82369978,55.4220716 11.9114568,59.4083089 18.3105631,59.4083089 C26.3841284,59.4083089 31.896479,54.1246341 31.896479,46.6488471 C31.896479,29.8028552 1.37887376,33.7906845 1.37887376,16.0468341 C1.37887376,5.58136908 9.35338657,0 19.1973189,0 C25.7929579,0 30.5176052,1.69383249 33.6684182,4.6835105 L34.4561215,12.0605967 L34.063056,12.4585837 C30.5176052,5.08308941 24.9077744,2.69039182 18.7052009,2.69039182 C12.1095618,2.69039182 6.98870454,6.57792841 6.98870454,12.9584553 C6.98870454,28.4083089 38,22.9256406 38,44.7560212 C38,55.5207724 28.6481857,62 18.1140304,62 Z" id="Stroke-3" stroke="#FEFEFE" stroke-width="2"></path>
                <path d="M134.900099,60 C133.212884,59.7017799 129.240634,59.6018444 127.551833,59.6018444 C125.764718,59.6018444 120.503271,59.7017799 119.014272,60 L118.914371,59.6018444 C120.205154,59.0069904 121.694153,58.3122009 119.310803,55.8280906 C114.049356,50.1666667 106.502874,42.6175727 93.3968285,29.2087702 L88.7300297,33.182395 C88.7300297,45.1016831 88.7300297,50.4648868 88.9282458,55.8280906 C89.0281467,58.3122009 90.5171457,59.1069258 91.7080278,59.6018444 L91.6097126,60 C90.3189296,59.7017799 86.7446977,59.6018444 85.3540139,59.6018444 C83.9649158,59.6018444 80.3890981,59.7017799 79.0983152,60 L79,59.6018444 C80.1908821,59.1069258 81.6798811,58.3122009 81.779782,55.8280906 C81.977998,50.0667312 81.8796829,44.3069581 81.8796829,30.5 C81.8796829,16.6946282 81.977998,10.9332688 81.779782,5.17190945 C81.6798811,2.68938538 80.1908821,1.89466043 79,1.39815562 L79.0983152,1 C80.3890981,1.29822014 83.9649158,1.39815562 85.3540139,1.39815562 C86.7446977,1.39815562 90.3189296,1.29822014 91.6097126,1 L91.7080278,1.39815562 C90.5171457,1.89466043 89.0281467,2.68938538 88.9282458,5.17190945 C88.7300297,10.9332688 88.7300297,16.5946927 88.7300297,30.1034307 L88.7300297,30.5 C101.935976,18.7789966 110.077106,11.0332043 115.638256,5.76834973 C118.318137,3.1858902 118.616254,1.89466043 117.425372,1.39815562 L117.523687,1 C118.914371,1.29822014 121.099504,1.39815562 122.885035,1.39815562 C124.673736,1.39815562 126.559167,1.29822014 128.247968,1 L128.446184,1.39815562 C126.659068,1.89466043 123.581169,3.38417487 120.503271,5.9666344 C115.538355,10.0386084 107.991873,16.5946927 98.2618434,25.0368608 C111.269574,38.3473141 121.396036,48.7755014 127.0555,54.3385761 C129.736967,56.9210357 133.311199,59.0069904 135,59.6018444 L134.900099,60 Z" id="Fill-5" fill="#FEFEFE"></path>
                <path d="M134.900099,60 C133.212884,59.7017799 129.240634,59.6018444 127.551833,59.6018444 C125.764718,59.6018444 120.503271,59.7017799 119.014272,60 L118.914371,59.6018444 C120.205154,59.0069904 121.694153,58.3122009 119.310803,55.8280906 C114.049356,50.1666667 106.502874,42.6175727 93.3968285,29.2087702 L88.7300297,33.182395 C88.7300297,45.1016831 88.7300297,50.4648868 88.9282458,55.8280906 C89.0281467,58.3122009 90.5171457,59.1069258 91.7080278,59.6018444 L91.6097126,60 C90.3189296,59.7017799 86.7446977,59.6018444 85.3540139,59.6018444 C83.9649158,59.6018444 80.3890981,59.7017799 79.0983152,60 L79,59.6018444 C80.1908821,59.1069258 81.6798811,58.3122009 81.779782,55.8280906 C81.977998,50.0667312 81.8796829,44.3069581 81.8796829,30.5 C81.8796829,16.6946282 81.977998,10.9332688 81.779782,5.17190945 C81.6798811,2.68938538 80.1908821,1.89466043 79,1.39815562 L79.0983152,1 C80.3890981,1.29822014 83.9649158,1.39815562 85.3540139,1.39815562 C86.7446977,1.39815562 90.3189296,1.29822014 91.6097126,1 L91.7080278,1.39815562 C90.5171457,1.89466043 89.0281467,2.68938538 88.9282458,5.17190945 C88.7300297,10.9332688 88.7300297,16.5946927 88.7300297,30.1034307 L88.7300297,30.5 C101.935976,18.7789966 110.077106,11.0332043 115.638256,5.76834973 C118.318137,3.1858902 118.616254,1.89466043 117.425372,1.39815562 L117.523687,1 C118.914371,1.29822014 121.099504,1.39815562 122.885035,1.39815562 C124.673736,1.39815562 126.559167,1.29822014 128.247968,1 L128.446184,1.39815562 C126.659068,1.89466043 123.581169,3.38417487 120.503271,5.9666344 C115.538355,10.0386084 107.991873,16.5946927 98.2618434,25.0368608 C111.269574,38.3473141 121.396036,48.7755014 127.0555,54.3385761 C129.736967,56.9210357 133.311199,59.0069904 135,59.6018444 L134.900099,60 Z" id="Stroke-7" stroke="#FEFEFE" stroke-width="2"></path>
                <path d="M216.509523,6.06511978 C212.616449,11.2301777 211.318758,13.1178985 204.73146,21.9568736 C202.733908,24.6393407 199.739972,28.8113624 197.243431,32.1886376 C197.243431,45.995967 197.243431,50.1664023 197.444302,55.8279784 C197.543143,58.3121555 199.040112,59.0069637 200.238961,59.60342 L200.138526,60 C198.840835,59.7017718 195.247473,59.60342 193.850941,59.60342 C192.452814,59.60342 188.759017,59.7017718 187.561762,60 L187.461326,59.60342 C188.658582,59.0069637 190.15555,58.3121555 190.15555,55.8279784 C190.456857,50.2663404 190.356421,46.0943188 190.356421,32.6851558 C188.159592,29.6061087 185.06522,25.3341489 182.570274,21.9568736 C176.081817,13.1178985 173.985424,9.93891324 171.390042,6.6615761 C169.692203,4.37727529 167.696245,1.89309816 166,1.39658 L166.098841,1 C167.796681,1.29822816 171.390042,1.39658 173.086287,1.39658 C174.884562,1.39658 180.274604,1.29822816 181.67273,1 L181.771572,1.39658 C180.572722,1.89309816 177.778062,2.38961633 179.275031,4.7738553 C182.669115,10.2371414 184.566231,13.1178985 191.054687,21.9568736 C193.750505,25.7323152 195.147038,27.620036 196.444729,29.5061705 C198.042133,27.2218697 199.739972,24.8376307 202.035642,21.7585836 C207.425684,14.5075149 209.023088,12.223214 213.714863,5.07208346 C215.211831,2.68784449 212.916161,1.89309816 211.61847,1.39658 L211.718906,1 C213.215874,1.29822816 215.411108,1.39658 217.108948,1.39658 C218.905628,1.39658 220.203319,1.29822816 221.899564,1 L222,1.39658 C220.302161,1.89309816 218.306203,3.78081897 216.509523,6.06511978" id="Fill-9" fill="#FEFEFE"></path>
                <path d="M216.509523,6.06511978 C212.616449,11.2301777 211.318758,13.1178985 204.73146,21.9568736 C202.733908,24.6393407 199.739972,28.8113624 197.243431,32.1886376 C197.243431,45.995967 197.243431,50.1664023 197.444302,55.8279784 C197.543143,58.3121555 199.040112,59.0069637 200.238961,59.60342 L200.138526,60 C198.840835,59.7017718 195.247473,59.60342 193.850941,59.60342 C192.452814,59.60342 188.759017,59.7017718 187.561762,60 L187.461326,59.60342 C188.658582,59.0069637 190.15555,58.3121555 190.15555,55.8279784 C190.456857,50.2663404 190.356421,46.0943188 190.356421,32.6851558 C188.159592,29.6061087 185.06522,25.3341489 182.570274,21.9568736 C176.081817,13.1178985 173.985424,9.93891324 171.390042,6.6615761 C169.692203,4.37727529 167.696245,1.89309816 166,1.39658 L166.098841,1 C167.796681,1.29822816 171.390042,1.39658 173.086287,1.39658 C174.884562,1.39658 180.274604,1.29822816 181.67273,1 L181.771572,1.39658 C180.572722,1.89309816 177.778062,2.38961633 179.275031,4.7738553 C182.669115,10.2371414 184.566231,13.1178985 191.054687,21.9568736 C193.750505,25.7323152 195.147038,27.620036 196.444729,29.5061705 C198.042133,27.2218697 199.739972,24.8376307 202.035642,21.7585836 C207.425684,14.5075149 209.023088,12.223214 213.714863,5.07208346 C215.211831,2.68784449 212.916161,1.89309816 211.61847,1.39658 L211.718906,1 C213.215874,1.29822816 215.411108,1.39658 217.108948,1.39658 C218.905628,1.39658 220.203319,1.29822816 221.899564,1 L222,1.39658 C220.302161,1.89309816 218.306203,3.78081897 216.509523,6.06511978 Z" id="Stroke-11" stroke="#FEFEFE" stroke-width="2"></path>
                <path d="M314.123297,3.31133464 C313.9232,8.63863995 313.9232,18.0846152 313.9232,29.8435301 C321.642134,30.5481662 332.666667,28.536984 332.666667,15.8744014 C332.666667,4.41724405 321.941479,3.31133464 314.123297,3.31133464 M341.286836,61 C327.555394,61 328.557479,35.472593 318.935224,32.6588641 C318.133237,32.5577432 317.331249,32.5577432 316.529261,32.5577432 C315.626424,32.5577432 314.826037,32.5577432 313.9232,32.6588641 C313.9232,44.9201734 313.9232,50.8493887 314.123297,56.3773307 C314.224146,58.8893021 315.626424,59.592333 316.830206,60.1958482 L316.729357,60.5987266 C315.527176,60.296969 311.919031,60.1958482 310.515152,60.1958482 C309.111272,60.1958482 305.403879,60.296969 304.100849,60.5987266 L304,60.1958482 C305.203782,59.592333 306.706909,58.8893021 306.806157,56.3773307 C307.006254,50.5476311 307.006254,44.7179316 307.006254,30.7488029 C307.006254,16.7796742 307.006254,10.9483695 306.806157,5.12027501 C306.706909,2.60669859 305.403879,1.80415184 304.100849,1.70303095 L304.100849,1.30015248 C305.30303,1.0995158 315.22623,1 316.630109,1 C332.967612,1 339.983806,7.83448811 339.983806,15.8744014 C339.983806,25.5226184 331.864679,30.5481662 322.141575,32.055349 C333.167709,35.2719563 339.080969,61.5023943 346.799903,59.0899387 L347,59.592333 C345.396024,60.7993633 343.291006,61 341.286836,61" id="Fill-13" fill="#FEFEFE"></path>
                <path d="M314.123297,3.31133464 C313.9232,8.63863995 313.9232,18.0846152 313.9232,29.8435301 C321.642134,30.5481662 332.666667,28.536984 332.666667,15.8744014 C332.666667,4.41724405 321.941479,3.31133464 314.123297,3.31133464 Z M341.286836,61 C327.555394,61 328.557479,35.472593 318.935224,32.6588641 C318.133237,32.5577432 317.331249,32.5577432 316.529261,32.5577432 C315.626424,32.5577432 314.826037,32.5577432 313.9232,32.6588641 C313.9232,44.9201734 313.9232,50.8493887 314.123297,56.3773307 C314.224146,58.8893021 315.626424,59.592333 316.830206,60.1958482 L316.729357,60.5987266 C315.527176,60.296969 311.919031,60.1958482 310.515152,60.1958482 C309.111272,60.1958482 305.403879,60.296969 304.100849,60.5987266 L304,60.1958482 C305.203782,59.592333 306.706909,58.8893021 306.806157,56.3773307 C307.006254,50.5476311 307.006254,44.7179316 307.006254,30.7488029 C307.006254,16.7796742 307.006254,10.9483695 306.806157,5.12027501 C306.706909,2.60669859 305.403879,1.80415184 304.100849,1.70303095 L304.100849,1.30015248 C305.30303,1.0995158 315.22623,1 316.630109,1 C332.967612,1 339.983806,7.83448811 339.983806,15.8744014 C339.983806,25.5226184 331.864679,30.5481662 322.141575,32.055349 C333.167709,35.2719563 339.080969,61.5023943 346.799903,59.0899387 L347,59.592333 C345.396024,60.7993633 343.291006,61 341.286836,61 Z" id="Stroke-15" stroke="#FEFEFE" stroke-width="2"></path>
                <path d="M443.691083,55.2714213 C440.687122,49.4417217 438.783654,45.5236885 432.273473,31.9542281 C425.862464,18.286857 420.455974,6.6274578 418.050246,1 L416.848982,1 C414.345681,6.6274578 409.137536,18.286857 402.627355,31.9542281 C396.117174,45.5236885 393.812218,50.1463578 390.808257,55.9744523 C389.50622,58.5891496 387.804296,59.9952115 386,60.5987266 L386.100772,61 C387.804296,60.6982424 389.605393,60.5987266 391.308917,60.5987266 C393.111613,60.5987266 395.015082,60.6982424 396.41629,61 L396.517062,60.5987266 C395.315797,59.9952115 393.010841,59.2921805 394.112934,56.7786041 C395.816458,52.5572082 397.41921,48.7386908 400.522343,41.9042027 L401.525263,39.4933522 C402.526583,37.2815334 403.729447,34.8690779 405.031483,31.9542281 C410.338801,20.6977074 412.141497,16.176159 414.945514,10.1458227 C417.75113,16.176159 418.651678,18.4874936 424.961915,31.9542281 C426.263952,34.7695621 427.465216,37.2815334 428.466536,39.4933522 L429.568628,41.9042027 C432.874905,48.7386908 434.677601,52.6583291 436.379526,56.7786041 C437.480018,59.2921805 435.277434,59.9952115 434.076169,60.5987266 L434.175341,61 C435.57815,60.6982424 440.184863,60.5987266 441.888387,60.5987266 C443.691083,60.5987266 447.197304,60.6982424 448.899228,61 L449,60.5987266 C447.197304,59.9952115 444.993119,57.8845135 443.691083,55.2714213" id="Fill-17" fill="#FEFEFE"></path>
                <path d="M443.691083,55.2714213 C440.687122,49.4417217 438.783654,45.5236885 432.273473,31.9542281 C425.862464,18.286857 420.455974,6.6274578 418.050246,1 L416.848982,1 C414.345681,6.6274578 409.137536,18.286857 402.627355,31.9542281 C396.117174,45.5236885 393.812218,50.1463578 390.808257,55.9744523 C389.50622,58.5891496 387.804296,59.9952115 386,60.5987266 L386.100772,61 C387.804296,60.6982424 389.605393,60.5987266 391.308917,60.5987266 C393.111613,60.5987266 395.015082,60.6982424 396.41629,61 L396.517062,60.5987266 C395.315797,59.9952115 393.010841,59.2921805 394.112934,56.7786041 C395.816458,52.5572082 397.41921,48.7386908 400.522343,41.9042027 L401.525263,39.4933522 C402.526583,37.2815334 403.729447,34.8690779 405.031483,31.9542281 C410.338801,20.6977074 412.141497,16.176159 414.945514,10.1458227 C417.75113,16.176159 418.651678,18.4874936 424.961915,31.9542281 C426.263952,34.7695621 427.465216,37.2815334 428.466536,39.4933522 L429.568628,41.9042027 C432.874905,48.7386908 434.677601,52.6583291 436.379526,56.7786041 C437.480018,59.2921805 435.277434,59.9952115 434.076169,60.5987266 L434.175341,61 C435.57815,60.6982424 440.184863,60.5987266 441.888387,60.5987266 C443.691083,60.5987266 447.197304,60.6982424 448.899228,61 L449,60.5987266 C447.197304,59.9952115 444.993119,57.8845135 443.691083,55.2714213 Z" id="Stroke-19" stroke="#FEFEFE" stroke-width="2"></path>
                <path d="M544.310246,5.21407933 C544.109709,11.0336748 543.711816,16.8532703 543.711816,30.7981875 C543.711816,44.7447071 543.613139,56.1820068 543.910762,62 L542.316009,62 C523.282421,40.2293932 516.905,32.9052272 516.905,32.9052272 C516.905,32.9052272 510.427309,25.6820068 494.481368,7.32111899 C494.481368,13.2400578 494.581637,17.2538482 494.680314,30.7981875 C494.780583,44.7447071 495.180067,50.5627003 495.379013,56.3822958 C495.477691,58.8899133 496.973767,59.5917258 498.169036,60.1941949 L498.068767,60.5963751 C496.873498,60.2951405 494.979529,60.1941949 493.585314,60.1941949 C492.189507,60.1941949 490.395807,60.2951405 489.200538,60.5963751 L489.100269,60.1941949 C490.29713,59.5917258 491.691345,58.8899133 491.791614,56.3822958 C491.99056,50.5627003 492.388453,44.7447071 492.388453,30.7981875 C492.388453,16.8532703 492.388453,11.5351983 492.189507,5.71560284 C492.089238,3.10703966 490.196861,1.9037037 489,1.40218019 L489.100269,1 C490.29713,1.30123457 492.488722,1.40218019 493.882937,1.40218019 L498.468251,1.40218019 C512.618901,17.9556606 521.48713,27.8883898 521.48713,27.8883898 C521.48713,27.8883898 530.258273,37.9220646 541.618901,50.5627003 C541.518632,45.4465196 541.419955,41.8349094 541.321278,30.7981875 C541.221009,16.8532703 540.821525,11.0336748 540.622578,5.21407933 C540.423632,2.70646178 539.027825,1.9037037 537.832556,1.40218019 L537.932825,1 C539.126502,1.30123457 541.020471,1.40218019 542.416278,1.40218019 C543.812085,1.40218019 545.704462,1.30123457 546.901323,1 L547,1.40218019 C545.804731,1.9037037 544.408924,2.70646178 544.310246,5.21407933" id="Fill-21" fill="#FEFEFE"></path>
                <path d="M544.310246,5.21407933 C544.109709,11.0336748 543.711816,16.8532703 543.711816,30.7981875 C543.711816,44.7447071 543.613139,56.1820068 543.910762,62 L542.316009,62 C523.282421,40.2293932 516.905,32.9052272 516.905,32.9052272 C516.905,32.9052272 510.427309,25.6820068 494.481368,7.32111899 C494.481368,13.2400578 494.581637,17.2538482 494.680314,30.7981875 C494.780583,44.7447071 495.180067,50.5627003 495.379013,56.3822958 C495.477691,58.8899133 496.973767,59.5917258 498.169036,60.1941949 L498.068767,60.5963751 C496.873498,60.2951405 494.979529,60.1941949 493.585314,60.1941949 C492.189507,60.1941949 490.395807,60.2951405 489.200538,60.5963751 L489.100269,60.1941949 C490.29713,59.5917258 491.691345,58.8899133 491.791614,56.3822958 C491.99056,50.5627003 492.388453,44.7447071 492.388453,30.7981875 C492.388453,16.8532703 492.388453,11.5351983 492.189507,5.71560284 C492.089238,3.10703966 490.196861,1.9037037 489,1.40218019 L489.100269,1 C490.29713,1.30123457 492.488722,1.40218019 493.882937,1.40218019 L498.468251,1.40218019 C512.618901,17.9556606 521.48713,27.8883898 521.48713,27.8883898 C521.48713,27.8883898 530.258273,37.9220646 541.618901,50.5627003 C541.518632,45.4465196 541.419955,41.8349094 541.321278,30.7981875 C541.221009,16.8532703 540.821525,11.0336748 540.622578,5.21407933 C540.423632,2.70646178 539.027825,1.9037037 537.832556,1.40218019 L537.932825,1 C539.126502,1.30123457 541.020471,1.40218019 542.416278,1.40218019 C543.812085,1.40218019 545.704462,1.30123457 546.901323,1 L547,1.40218019 C545.804731,1.9037037 544.408924,2.70646178 544.310246,5.21407933 Z" id="Stroke-23" stroke="#FEFEFE" stroke-width="2"></path>
                <path d="M645.798773,52.7300878 C640.30016,58.6107431 631.599479,62 622.09868,62 C604.299655,62 589,49.8391106 589,31 C589,12.1608894 604.299655,0 622.09868,0 C631.000588,0 640.199546,2.8893853 645.599143,8.6713398 L646,15.9481333 L645.399512,16.0468341 C641.199294,7.07620808 632.798857,2.69039182 622.09868,2.69039182 C608.39926,2.69039182 596.898966,13.6557284 596.898966,31 C596.898966,48.2439788 608.39926,59.3096082 622.09868,59.3096082 C633.399344,59.3096082 639.899302,55.7197658 645.498529,47.9446927 L646,48.1452781 L645.798773,52.7300878 Z" id="Fill-25" fill="#FEFEFE"></path>
                <path d="M645.798773,52.7300878 C640.30016,58.6107431 631.599479,62 622.09868,62 C604.299655,62 589,49.8391106 589,31 C589,12.1608894 604.299655,0 622.09868,0 C631.000588,0 640.199546,2.8893853 645.599143,8.6713398 L646,15.9481333 L645.399512,16.0468341 C641.199294,7.07620808 632.798857,2.69039182 622.09868,2.69039182 C608.39926,2.69039182 596.898966,13.6557284 596.898966,31 C596.898966,48.2439788 608.39926,59.3096082 622.09868,59.3096082 C633.399344,59.3096082 639.899302,55.7197658 645.498529,47.9446927 L646,48.1452781 L645.798773,52.7300878 Z" id="Stroke-27" stroke="#FEFEFE" stroke-width="2"></path>
                <path d="M743.900086,60 C742.709051,59.7017799 739.134359,59.6018444 737.643583,59.6018444 C736.254306,59.6018444 732.678028,59.7017799 731.388665,60 L731.288751,59.6018444 C732.481372,59.1069258 733.970563,58.3122009 734.070477,55.8280906 C734.268718,50.0667312 734.268718,44.4053073 734.268718,30.8981556 L696.731282,30.8981556 C696.731282,44.4053073 696.731282,50.0667312 696.929523,55.8280906 C697.029437,58.3122009 698.518628,59.1069258 699.711249,59.6018444 L699.611335,60 C698.320386,59.7017799 694.745694,59.6018444 693.354832,59.6018444 C691.963969,59.6018444 688.390863,59.7017799 687.098328,60 L687,59.6018444 C688.191035,59.1069258 689.680226,58.3122009 689.78014,55.8280906 C689.979967,50.0667312 689.880053,44.3069581 689.880053,30.5 C689.880053,16.6946282 689.979967,10.9332688 689.78014,5.17190945 C689.680226,2.68938538 688.191035,1.89466043 687,1.39815562 L687.098328,1 C688.390863,1.29822014 691.963969,1.39815562 693.354832,1.39815562 C694.745694,1.39815562 698.320386,1.29822014 699.611335,1 L699.711249,1.39815562 C698.518628,1.89466043 697.029437,2.68938538 696.929523,5.17190945 C696.731282,10.6350487 696.731282,16.0981879 696.731282,28.3156961 L734.268718,28.3156961 C734.268718,16.0981879 734.268718,10.6350487 734.070477,5.17190945 C733.970563,2.68938538 732.481372,1.89466043 731.288751,1.39815562 L731.388665,1 C732.678028,1.29822014 736.254306,1.39815562 737.643583,1.39815562 C739.134359,1.39815562 742.709051,1.29822014 743.900086,1 L744,1.39815562 C742.807379,1.89466043 741.418102,2.68938538 741.318188,5.17190945 C741.020033,10.9332688 741.119947,16.6946282 741.119947,30.5 C741.119947,44.3069581 741.020033,50.0667312 741.318188,55.8280906 C741.418102,58.3122009 742.807379,59.1069258 744,59.6018444 L743.900086,60 Z" id="Fill-29" fill="#FEFEFE"></path>
                <path d="M743.900086,60 C742.709051,59.7017799 739.134359,59.6018444 737.643583,59.6018444 C736.254306,59.6018444 732.678028,59.7017799 731.388665,60 L731.288751,59.6018444 C732.481372,59.1069258 733.970563,58.3122009 734.070477,55.8280906 C734.268718,50.0667312 734.268718,44.4053073 734.268718,30.8981556 L696.731282,30.8981556 C696.731282,44.4053073 696.731282,50.0667312 696.929523,55.8280906 C697.029437,58.3122009 698.518628,59.1069258 699.711249,59.6018444 L699.611335,60 C698.320386,59.7017799 694.745694,59.6018444 693.354832,59.6018444 C691.963969,59.6018444 688.390863,59.7017799 687.098328,60 L687,59.6018444 C688.191035,59.1069258 689.680226,58.3122009 689.78014,55.8280906 C689.979967,50.0667312 689.880053,44.3069581 689.880053,30.5 C689.880053,16.6946282 689.979967,10.9332688 689.78014,5.17190945 C689.680226,2.68938538 688.191035,1.89466043 687,1.39815562 L687.098328,1 C688.390863,1.29822014 691.963969,1.39815562 693.354832,1.39815562 C694.745694,1.39815562 698.320386,1.29822014 699.611335,1 L699.711249,1.39815562 C698.518628,1.89466043 697.029437,2.68938538 696.929523,5.17190945 C696.731282,10.6350487 696.731282,16.0981879 696.731282,28.3156961 L734.268718,28.3156961 C734.268718,16.0981879 734.268718,10.6350487 734.070477,5.17190945 C733.970563,2.68938538 732.481372,1.89466043 731.288751,1.39815562 L731.388665,1 C732.678028,1.29822014 736.254306,1.39815562 737.643583,1.39815562 C739.134359,1.39815562 742.709051,1.29822014 743.900086,1 L744,1.39815562 C742.807379,1.89466043 741.418102,2.68938538 741.318188,5.17190945 C741.020033,10.9332688 741.119947,16.6946282 741.119947,30.5 C741.119947,44.3069581 741.020033,50.0667312 741.318188,55.8280906 C741.418102,58.3122009 742.807379,59.1069258 744,59.6018444 L743.900086,60 Z" id="Stroke-31" stroke="#FEFEFE" stroke-width="2"></path>
                <path d="M374,36.0215642 L374,37.5936069 C386.109607,31.5777713 408.538677,29.1316468 434.872794,51 L438,48.5489832 C438,48.5489832 407.111315,19.6504682 374,36.0215642" id="Fill-33" fill="#FEFEFE"></path>
                <path d="M374,36.0215642 L374,37.5936069 C386.109607,31.5777713 408.538677,29.1316468 434.872794,51 L438,48.5489832 C438,48.5489832 407.111315,19.6504682 374,36.0215642 Z" id="Stroke-35" stroke="#FEFEFE"></path>
            </g>
        </g>
    </g>
</svg>